<svg width="20" height="20" viewBox="0 0 20 20" fill="none" xmlns="http://www.w3.org/2000/svg">
<path d="M5.68248e-07 19.1C5.68248e-07 18.6029 0.402944 18.2 0.900001 18.2H19.1C19.5971 18.2 20 18.6029 20 19.1C20 19.5971 19.5971 20 19.1 20H0.900001C0.402945 20 5.68248e-07 19.5971 5.68248e-07 19.1Z" fill="white"/>
<path d="M0.900001 0C1.39706 2.1727e-08 1.8 0.402944 1.8 0.9L1.8 19.1C1.8 19.5971 1.39706 20 0.900001 20C0.402945 20 5.68248e-07 19.5971 5.68248e-07 19.1L1.29185e-06 0.9C1.31357e-06 0.402944 0.402945 -2.1727e-08 0.900001 0Z" fill="white"/>
<path d="M12.0104 15.0251C12.6637 16.6023 13 18.2928 13 20H11.2C11.2 18.5292 10.9103 17.0728 10.3475 15.7139C9.7846 14.3551 8.95961 13.1204 7.9196 12.0804C6.87958 11.0404 5.6449 10.2154 4.28606 9.65255C2.92721 9.0897 1.47081 8.8 5.68248e-07 8.8L0 7C1.70718 7 3.39765 7.33626 4.97488 7.98957C6.55212 8.64288 7.98523 9.60045 9.19239 10.8076C10.3996 12.0148 11.3571 13.4479 12.0104 15.0251Z" fill="white"/>
</svg>
