<svg width="20" height="20" viewBox="0 0 20 20" fill="none" xmlns="http://www.w3.org/2000/svg">
<path d="M0 10C0 9.50294 0.402944 9.1 0.9 9.1H19.1C19.5971 9.1 20 9.50294 20 10C20 10.4971 19.5971 10.9 19.1 10.9H0.9C0.402944 10.9 0 10.4971 0 10Z" fill="white"/>
<path d="M19.7 9.3C19.6211 9.22112 19.5377 9.1448 19.4371 9.09661C19.3078 9.03468 19.163 9 19.0101 9C18.7475 9 18.4957 9.1043 18.3101 9.28995L9.28995 18.3101C8.66632 18.9337 9.108 20 9.98995 20C10.2525 20 10.5043 19.8957 10.6899 19.7101L19.7101 10.6899C19.8957 10.5043 20 10.2525 20 9.98995C20 9.83701 19.9653 9.69217 19.9034 9.56287C19.8552 9.46226 19.7789 9.37888 19.7 9.3Z" fill="white"/>
<path d="M18.3101 10.7101L9.28995 1.68995C8.66632 1.06632 9.108 0 9.98995 0C10.2525 0 10.5043 0.104298 10.6899 0.289949L19.7101 9.31005C19.8957 9.4957 20 9.7475 20 10.0101C20 10.163 19.9653 10.3078 19.9034 10.4371C19.8552 10.5377 19.7789 10.6211 19.7 10.7C19.6211 10.7789 19.5377 10.8552 19.4371 10.9034C19.3078 10.9653 19.163 11 19.0101 11C18.7475 11 18.4957 10.8957 18.3101 10.7101Z" fill="white"/>
</svg>
