<svg width="20" height="20" viewBox="0 0 20 20" fill="none" xmlns="http://www.w3.org/2000/svg">
<path d="M11.2566 2.06365C11.6078 1.71218 12.1773 1.71218 12.5286 2.06365L19.7366 9.27614C20.0878 9.62761 20.0878 10.1975 19.7366 10.5489C19.3853 10.9004 18.8158 10.9004 18.4646 10.5489L11.2566 3.33644C10.9053 2.98497 10.9053 2.41512 11.2566 2.06365Z" fill="white"/>
<path d="M19.7366 9.27614C20.0878 9.62761 20.0878 10.1975 19.7366 10.5489L12.5286 17.7614C12.1773 18.1129 11.6078 18.1129 11.2566 17.7614C10.9053 17.4099 10.9053 16.8401 11.2566 16.4886L18.4646 9.27614C18.8158 8.92467 19.3853 8.92467 19.7366 9.27614Z" fill="white"/>
<path d="M0 9.90005C0 9.40299 0.402692 9.00005 0.899438 9.00005H17.4891C17.9858 9.00005 18.3885 9.40299 18.3885 9.90005C18.3885 10.3971 17.9858 10.8 17.4891 10.8H0.899439C0.402693 10.8 0 10.3971 0 9.90005Z" fill="white"/>
</svg>
