<svg width="20" height="20" viewBox="0 0 20 20" fill="none" xmlns="http://www.w3.org/2000/svg">
<path d="M0 0.9C0 0.402944 0.402944 0 0.9 0H19.1C19.5971 0 20 0.402944 20 0.9C20 1.39706 19.5971 1.8 19.1 1.8H0.9C0.402944 1.8 0 1.39706 0 0.9Z" fill="white"/>
<path d="M0 6.3C0 5.80294 0.402944 5.4 0.9 5.4H19.1C19.5971 5.4 20 5.80294 20 6.3V8.9C20 9.39706 19.5971 9.8 19.1 9.8H0.9C0.402944 9.8 0 9.39706 0 8.9V6.3Z" fill="white"/>
<path d="M0 14.1C0 13.6029 0.402944 13.2 0.9 13.2H19.1C19.5971 13.2 20 13.6029 20 14.1V19.1C20 19.5971 19.5971 20 19.1 20H0.9C0.402944 20 0 19.5971 0 19.1V14.1Z" fill="white"/>
</svg>
