<svg width="20" height="20" viewBox="0 0 20 20" fill="none" xmlns="http://www.w3.org/2000/svg">
<path d="M4.2636 15.5773C3.91213 15.2258 3.91213 14.656 4.2636 14.3045L14.3045 4.2636C14.656 3.91213 15.2258 3.91213 15.5773 4.2636C15.9288 4.61508 15.9288 5.18493 15.5773 5.5364L5.5364 15.5773C5.18492 15.9288 4.61508 15.9288 4.2636 15.5773Z" fill="white"/>
<path d="M4.2636 4.2636C4.61508 3.91213 5.18492 3.91213 5.5364 4.2636L15.5773 14.3045C15.9288 14.656 15.9288 15.2258 15.5773 15.5773C15.2258 15.9288 14.656 15.9288 14.3045 15.5773L4.2636 5.5364C3.91213 5.18492 3.91213 4.61508 4.2636 4.2636Z" fill="white"/>
</svg>
