<svg width="20" height="20" viewBox="0 0 20 20" fill="none" xmlns="http://www.w3.org/2000/svg">
<path d="M2.90218 16.2656C2.90218 16.2656 11.159 7.91018 16.4499 2.5567C16.751 2.25204 17.2491 2.04527 17.7387 2.5407C18.2283 3.03612 18.0239 3.54017 17.7229 3.84481C17.4218 4.14945 4.0749 17.6552 4.0749 17.6552C3.77379 17.9599 3.18019 17.867 2.8864 17.5697C2.59262 17.2724 2.50078 16.6717 2.90218 16.2656Z" fill="white"/>
<path d="M7.57296 16.5725C8.29167 16.9723 9.11924 17.2 10 17.2C12.7614 17.2 15 14.9614 15 12.2C15 11.3193 14.7723 10.4917 14.3725 9.77296L13.0164 11.129C13.1353 11.4639 13.2 11.8244 13.2 12.2C13.2 13.9673 11.7673 15.4 10 15.4C9.62438 15.4 9.26388 15.3353 8.92904 15.2164L7.57296 16.5725Z" fill="white"/>
<path d="M11.9428 9.65707C11.4041 9.2449 10.7307 9.00002 10 9.00002C8.23269 9.00002 6.8 10.4327 6.8 12.2C6.8 12.9307 7.0449 13.6042 7.45708 14.1429C6.93929 14.6607 6.50432 15.0956 6.17712 15.4229C5.44266 14.5525 5 13.428 5 12.2C5 9.4386 7.23858 7.20002 10 7.20002C11.2279 7.20002 12.3525 7.64266 13.2228 8.37709C12.7909 8.80899 12.3628 9.23703 11.9428 9.65707Z" fill="white"/>
<path d="M16.1989 7.94653C17.7414 9.86005 18.2 12 18.2 12C18.2 12 18.3 12.9 19.1 12.9C19.9 12.9 20 12.6 20 12C20 11.6593 19.5809 8.86835 17.6259 6.51951L16.1989 7.94653Z" fill="white"/>
<path d="M16.3453 5.25461C15.8788 5.72107 15.4051 6.1948 14.9295 6.67039C13.732 5.70641 12.1284 5.00002 10 5.00002C3.3 5.00002 1.8 12 1.8 12C1.8 12 1.7 12.9 0.9 12.9C0.1 12.9 0 12.6 0 12C0 11.4 1.3 3.20002 10 3.20002C12.8264 3.20002 14.8718 4.06547 16.3453 5.25461Z" fill="white"/>
</svg>
