<svg width="20" height="20" viewBox="0 0 20 20" fill="none" xmlns="http://www.w3.org/2000/svg">
<path d="M15 12C15 14.7614 12.7614 17 10 17C7.23858 17 5 14.7614 5 12C5 9.23858 7.23858 7 10 7C12.7614 7 15 9.23858 15 12ZM6.8 12C6.8 13.7673 8.23269 15.2 10 15.2C11.7673 15.2 13.2 13.7673 13.2 12C13.2 10.2327 11.7673 8.8 10 8.8C8.23269 8.8 6.8 10.2327 6.8 12Z" fill="white"/>
<path d="M10 3C1.3 3 0 11.2 0 11.8C0 12.4 0.1 12.7 0.9 12.7C1.7 12.7 1.8 11.8 1.8 11.8C1.8 11.8 3.3 4.8 10 4.8C16.7 4.8 18.2 11.8 18.2 11.8C18.2 11.8 18.3 12.7 19.1 12.7C19.9 12.7 20 12.4 20 11.8C20 11.2 18.7 3 10 3Z" fill="white"/>
</svg>
