<svg width="20" height="20" viewBox="0 0 20 20" fill="none" xmlns="http://www.w3.org/2000/svg">
<path fill-rule="evenodd" clip-rule="evenodd" d="M4 20C2.89543 20 2 19.1046 2 18V5.82843C2 5.29799 2.21071 4.78929 2.58579 4.41421L6.41421 0.585786C6.78929 0.210714 7.29799 0 7.82843 0H16C17.1046 0 18 0.895431 18 2V18C18 19.1046 17.1046 20 16 20H4ZM3.8 17.4C3.8 17.8418 4.15817 18.2 4.6 18.2H15.4C15.8418 18.2 16.2 17.8418 16.2 17.4V2.6C16.2 2.15817 15.8418 1.8 15.4 1.8H8.82843C8.29799 1.8 7.78929 2.01071 7.41421 2.38579L4.38579 5.41421C4.01071 5.78929 3.8 6.29799 3.8 6.82843V17.4Z" fill="white"/>
<path d="M9.33347 9.56362C9.68494 9.21215 10.2548 9.21215 10.6063 9.56362C10.9577 9.91509 10.9577 10.4849 10.6063 10.8364L7.63641 13.8063C7.28494 14.1577 6.71509 14.1577 6.36362 13.8063C6.01215 13.4548 6.01215 12.8849 6.36362 12.5335L9.33347 9.56362Z" fill="white"/>
<path d="M10.6063 9.56362C10.9577 9.91509 10.9577 10.4849 10.6063 10.8364C10.2548 11.1879 9.68494 11.1879 9.33347 10.8364L6.36362 7.86656C6.01215 7.51509 6.01215 6.94524 6.36362 6.59377C6.71509 6.2423 7.28494 6.2423 7.63641 6.59377L10.6063 9.56362Z" fill="white"/>
<path d="M10.2 13.1C10.2 12.6029 10.6029 12.2 11.1 12.2H13.3C13.7971 12.2 14.2 12.6029 14.2 13.1C14.2 13.5971 13.7971 14 13.3 14H11.1C10.6029 14 10.2 13.5971 10.2 13.1Z" fill="white"/>
</svg>
