<svg width="20" height="20" viewBox="0 0 20 20" fill="none" xmlns="http://www.w3.org/2000/svg">
<path d="M0 2.9C0 2.40294 0.402944 2 0.9 2H19.1C19.5971 2 20 2.40294 20 2.9C20 3.39706 19.5971 3.8 19.1 3.8H0.9C0.402944 3.8 0 3.39706 0 2.9Z" fill="white"/>
<path d="M0 10C0 9.50294 0.402944 9.1 0.9 9.1H19.1C19.5971 9.1 20 9.50294 20 10C20 10.4971 19.5971 10.9 19.1 10.9H0.9C0.402944 10.9 0 10.4971 0 10Z" fill="white"/>
<path d="M0 17.1C0 16.6029 0.402944 16.2 0.9 16.2H19.1C19.5971 16.2 20 16.6029 20 17.1C20 17.5971 19.5971 18 19.1 18H0.9C0.402944 18 0 17.5971 0 17.1Z" fill="white"/>
</svg>
