<svg width="20" height="20" viewBox="0 0 20 20" fill="none" xmlns="http://www.w3.org/2000/svg">
<path d="M10 0.9C10 0.402944 10.4029 0 10.9 0H19.1C19.5971 0 20 0.402944 20 0.9C20 1.39706 19.5971 1.8 19.1 1.8H10.9C10.4029 1.8 10 1.39706 10 0.9Z" fill="white"/>
<path d="M19.1 0C19.5971 0 20 0.402944 20 0.9V9.1C20 9.59706 19.5971 10 19.1 10C18.6029 10 18.2 9.59706 18.2 9.1V0.9C18.2 0.402943 18.6029 -2.1727e-08 19.1 0Z" fill="white"/>
<path d="M18.2 1.8H16.8L7.5 11.1C7.20001 11.4 7.1 12.1 7.5 12.5C7.9 12.9 8.5 12.9 8.9 12.5L18.2 3.2V1.8Z" fill="white"/>
<path d="M9.06361 5.5364C9.63058 4.96943 9.22903 4 8.42721 4H2C0.895431 4 0 4.89543 0 6V18C0 19.1046 0.895431 20 2 20H14C15.1046 20 16 19.1046 16 18V11.5728C16 10.771 15.0306 10.3694 14.4636 10.9364C14.2948 11.1052 14.2 11.3341 14.2 11.5728V17.6C14.2 17.9314 13.9314 18.2 13.6 18.2H2.4C2.06863 18.2 1.8 17.9314 1.8 17.6V6.4C1.8 6.06863 2.06863 5.8 2.4 5.8H8.42722C8.66591 5.8 8.89483 5.70518 9.06361 5.5364Z" fill="white"/>
<path d="M13.9332 5.46677C13.8103 5.58974 13.9013 5.85277 14.0243 5.97574C14.1472 6.09871 14.4103 6.18974 14.5332 6.06677L15.3799 5.22007C15.5563 5.04369 15.5906 4.76217 15.4142 4.58579C15.2378 4.40941 14.9563 4.44369 14.7799 4.62007L13.9332 5.46677Z" fill="white"/>
</svg>
