<svg width="20" height="20" viewBox="0 0 20 20" fill="none" xmlns="http://www.w3.org/2000/svg">
<path d="M18 9C18 13.9706 13.9705 18 8.99999 18C4.02943 18 0 13.9706 0 9C0 4.02944 4.02943 0 8.99999 0C13.9705 0 18 4.02944 18 9ZM1.8 9C1.8 12.9764 5.02354 16.2 8.99999 16.2C12.9764 16.2 16.2 12.9764 16.2 9C16.2 5.02355 12.9764 1.8 8.99999 1.8C5.02354 1.8 1.8 5.02355 1.8 9Z" fill="white"/>
<path d="M18.31 19.71L14.6 16C14.4 15.8 14.2 15 14.6 14.6C15 14.2 15.7 14.3 16 14.6L19.71 18.31C19.8957 18.4957 20 18.7475 20 19.01C20 19.5568 19.5568 20 19.01 20C18.7475 20 18.4957 19.8957 18.31 19.71Z" fill="white"/>
</svg>
