<svg width="20" height="20" viewBox="0 0 20 20" fill="none" xmlns="http://www.w3.org/2000/svg">
<path d="M9.6 5.69995C9.6 7.63295 8.033 9.19995 6.1 9.19995C4.167 9.19995 2.6 7.63295 2.6 5.69995C2.6 3.76695 4.167 2.19995 6.1 2.19995C8.033 2.19995 9.6 3.76695 9.6 5.69995ZM4.455 5.69995C4.455 6.60846 5.19149 7.34495 6.1 7.34495C7.00851 7.34495 7.745 6.60846 7.745 5.69995C7.745 4.79144 7.00851 4.05495 6.1 4.05495C5.19149 4.05495 4.455 4.79144 4.455 5.69995Z" fill="white"/>
<path d="M17.4 14.3C17.4 16.2329 15.833 17.8 13.9 17.8C11.967 17.8 10.4 16.2329 10.4 14.3C10.4 12.367 11.967 10.8 13.9 10.8C15.833 10.8 17.4 12.367 17.4 14.3ZM12.255 14.3C12.255 15.2085 12.9915 15.945 13.9 15.945C14.8085 15.945 15.545 15.2085 15.545 14.3C15.545 13.3914 14.8085 12.655 13.9 12.655C12.9915 12.655 12.255 13.3914 12.255 14.3Z" fill="white"/>
<path d="M9.50535 6.49995C9.56722 6.2434 9.6 5.9755 9.6 5.69995C9.6 5.35193 9.54771 5.01612 9.45056 4.69995H19.1C19.5971 4.69995 20 5.10289 20 5.59995C20 6.09701 19.5971 6.49995 19.1 6.49995H9.50535Z" fill="white"/>
<path d="M2.89465 6.49995H0.9C0.402944 6.49995 0 6.09701 0 5.59995C0 5.10289 0.402944 4.69995 0.9 4.69995H2.94944C2.85229 5.01612 2.8 5.35193 2.8 5.69995C2.8 5.9755 2.83278 6.2434 2.89465 6.49995Z" fill="white"/>
<path d="M10.4947 15.1C10.4328 14.8434 10.4 14.5755 10.4 14.3C10.4 13.9519 10.4523 13.6161 10.5494 13.3H0.9C0.402943 13.3 0 13.7029 0 14.2C0 14.697 0.402943 15.1 0.9 15.1H10.4947Z" fill="white"/>
<path d="M17.1053 15.1H19.1C19.5971 15.1 20 14.697 20 14.2C20 13.7029 19.5971 13.3 19.1 13.3H17.0506C17.1477 13.6161 17.2 13.9519 17.2 14.3C17.2 14.5755 17.1672 14.8434 17.1053 15.1Z" fill="white"/>
</svg>
